<svg xmlns="http://www.w3.org/2000/svg" width="118" height="118" fill="none" viewBox="0 0 118 118">
    <path fill="#000" d="M59 117.682c14.281 0 27.905-6.455 39.705-17.56 12.293-11.57 18.969-25.296 18.969-41.122 0-18.775-6.648-35.342-18.997-45.731C88.849 5 74.008.318 59 .318c-16.014 0-30.052 7.763-42.262 21.618C5.903 34.23.326 45.706.326 59c0 15.842 7.094 29.007 20.534 41.132 12.635 11.398 24.747 17.55 38.14 17.55zm0-1.364c-13.003 0-24.832-6.008-37.242-17.205C8.583 87.227 1.674 74.41 1.674 59c0-12.904 5.436-24.088 16.07-36.156C29.72 9.257 43.417 1.682 59 1.682c14.712 0 29.247 4.587 38.814 12.636 12.019 10.111 18.512 26.29 18.512 44.682 0 15.421-6.506 28.798-18.54 40.123C86.218 110.01 72.906 116.318 59 116.318z"/>
    <path fill="#000" d="M19.999 98.876c9.73 9.796 23.365 14.753 38.897 15.3 16.18.57 29.991-4.179 40.672-14.932 12.67-12.757 19.322-28.574 17.922-44.105-1.115-12.36-8.064-25.722-18.288-36.015C88.292 8.14 73.49 3.787 55.825 4.827c-15.676.923-27.22 4.896-36.192 13.929C8.941 29.52 4.888 43.334 5.86 60.79 6.774 77.2 10.873 89.688 20 98.876zm.951-.967C12.103 89 8.104 76.819 7.207 60.713c-.952-17.097 2.99-30.53 13.378-40.99 8.7-8.76 19.94-12.628 35.318-13.533C73.216 5.17 87.645 9.414 98.251 20.09c10.012 10.08 16.811 23.154 17.895 35.172 1.362 15.097-5.128 30.527-17.53 43.014-10.398 10.469-23.846 15.093-39.673 14.535-15.216-.536-28.53-5.376-37.993-14.903z"/>
    <path fill="#000" d="M21.442 20.963c-9.248 9.26-13.89 22.278-14.34 37.125-.469 15.466 4.096 28.692 14.34 38.949 12.15 12.164 27.172 18.591 41.89 17.321 11.714-1.011 24.351-7.594 34.066-17.321 10.371-10.384 14.434-24.52 13.37-41.414-.945-14.989-4.764-26.043-13.37-34.66-10.254-10.266-23.365-14.2-39.907-13.348-15.27.786-26.944 4.524-35.573 12.88l-.476.468zm.949.97c8.395-8.405 19.916-12.17 35.168-12.955 16.193-.834 28.937 2.989 38.89 12.955 8.334 8.345 12.047 19.092 12.972 33.777 1.042 16.531-2.911 30.283-12.972 40.357-9.502 9.515-21.855 15.949-33.232 16.931-14.295 1.234-28.942-5.032-40.826-16.931-9.96-9.974-14.398-22.83-13.94-37.937.431-14.254 4.796-26.737 13.446-35.693l.494-.504z"/>
    <path fill="#000" d="M48.108 37.999C46.664 36.065 44.715 35 42.62 35s-4.045 1.065-5.49 2.999C35.757 39.838 35 42.266 35 44.836c0 2.57.756 4.998 2.13 6.837.803 1.075 1.763 1.88 2.817 2.385l-1.612 24.343A4.3 4.3 0 0 0 42.62 83a4.3 4.3 0 0 0 3.134-1.365 4.339 4.339 0 0 0 1.149-3.234L45.29 54.06c1.054-.505 2.014-1.31 2.817-2.386 1.374-1.84 2.13-4.267 2.13-6.837 0-2.57-.756-4.998-2.13-6.837zM44.153 80.13c-.401.431-.946.668-1.534.668a2.077 2.077 0 0 1-1.534-.668 2.096 2.096 0 0 1-.563-1.582l1.583-23.9c.17.014.341.024.514.024.172 0 .343-.01.514-.024l1.582 23.9c.04.589-.16 1.151-.562 1.582zm-1.534-27.66a3.932 3.932 0 0 1-1.238-.203c-2.398-.79-4.189-3.821-4.189-7.431 0-4.21 2.435-7.634 5.427-7.634 2.992 0 5.427 3.424 5.427 7.634 0 4.21-2.435 7.634-5.427 7.634zM83 63.69V36.24l-.01.004a1.069 1.069 0 0 0-.16-.722 1.158 1.158 0 0 0-1.565-.357c-4.638 2.777-7.407 7.588-7.408 12.87v14.423c0 1.265 1.044 2.296 2.34 2.334v14.913c0 1.817 1.526 3.295 3.401 3.295C81.475 83 83 81.522 83 79.705v-16.01-.006zm-6.73-1.096a.138.138 0 0 1-.14-.136v-14.42l.001-.001c0-3.81 1.686-7.333 4.595-9.766v24.322h-4.455zm4.456 17.111c0 .603-.506 1.093-1.128 1.093-.621 0-1.127-.49-1.127-1.093V64.796h2.255v14.91zM65.901 35a1.1 1.1 0 0 0-1.098 1.1v12.507h-2.8V36.101a1.1 1.1 0 1 0-2.197 0v12.506h-2.8V36.101a1.1 1.1 0 1 0-2.197 0v15.936a3.255 3.255 0 0 0 3.248 3.254h.196L56.71 78.51a4.229 4.229 0 0 0 1.124 3.156A4.213 4.213 0 0 0 60.905 83a4.214 4.214 0 0 0 3.069-1.335 4.23 4.23 0 0 0 1.124-3.156l-1.542-23.218h.196c1.791 0 3.248-1.46 3.248-3.254V36.1A1.1 1.1 0 0 0 65.901 35zM62.37 80.161c-.383.41-.904.637-1.465.637-.56 0-1.08-.226-1.464-.637a1.991 1.991 0 0 1-.536-1.506l1.55-23.364h.9l1.551 23.364a1.99 1.99 0 0 1-.536 1.506zm2.433-28.124c0 .58-.47 1.053-1.05 1.053H58.057c-.579 0-1.05-.473-1.05-1.053v-1.228h7.795v1.228z"/>
</svg>
